<svg width="960" height="540" xmlns="http://www.w3.org/2000/svg" xmlns:xlink="http://www.w3.org/1999/xlink" overflow="hidden"><defs><filter id="fx0" x="-10%" y="-10%" width="120%" height="120%" filterUnits="userSpaceOnUse" primitiveUnits="userSpaceOnUse"><feComponentTransfer color-interpolation-filters="sRGB"><feFuncR type="discrete" tableValues="0.945098 0.945098"/><feFuncG type="discrete" tableValues="0.203922 0.203922"/><feFuncB type="discrete" tableValues="0.317647 0.317647"/><feFuncA type="linear" slope="0.521569" intercept="0"/></feComponentTransfer><feGaussianBlur stdDeviation="5.62119 5.6448"/></filter><filter id="fx1" x="-10%" y="-10%" width="120%" height="120%" filterUnits="userSpaceOnUse" primitiveUnits="userSpaceOnUse"><feComponentTransfer color-interpolation-filters="sRGB"><feFuncR type="discrete" tableValues="1 1"/><feFuncG type="discrete" tableValues="0.705882 0.705882"/><feFuncB type="discrete" tableValues="0.282353 0.282353"/><feFuncA type="linear" slope="0.4" intercept="0"/></feComponentTransfer><feGaussianBlur stdDeviation="1.5297 1.5297"/></filter><filter id="fx2" x="-10%" y="-10%" width="120%" height="120%" filterUnits="userSpaceOnUse" primitiveUnits="userSpaceOnUse"><feComponentTransfer color-interpolation-filters="sRGB"><feFuncR type="discrete" tableValues="1 1"/><feFuncG type="discrete" tableValues="0.705882 0.705882"/><feFuncB type="discrete" tableValues="0.282353 0.282353"/><feFuncA type="linear" slope="0.4" intercept="0"/></feComponentTransfer><feGaussianBlur stdDeviation="1.5297 1.5297"/></filter><clipPath id="clip3"><rect x="0" y="0" width="960" height="540"/></clipPath><clipPath id="clip4"><rect x="0" y="0" width="222" height="124"/></clipPath><clipPath id="clip5"><rect x="51" y="31" width="485" height="87"/></clipPath></defs><g clip-path="url(#clip3)"><rect x="0" y="0" width="960" height="540" fill="#F6F6F6"/><text fill="#202124" font-family="Segoe UI Emoji,Segoe UI Emoji_MSFontService,sans-serif" font-weight="400" font-size="72" transform="translate(-68.9855 73)">😄</text><text fill="#202124" font-family="Segoe UI Emoji,Segoe UI Emoji_MSFontService,sans-serif" font-weight="400" font-size="72" transform="translate(29.8478 73)">😊</text><text fill="#202124" font-family="Segoe UI Emoji,Segoe UI Emoji_MSFontService,sans-serif" font-weight="400" font-size="72" transform="translate(128.681 73)">🤞</text><text fill="#202124" font-family="Segoe UI Emoji,Segoe UI Emoji_MSFontService,sans-serif" font-weight="400" font-size="72" transform="translate(227.514 73)">😁</text><text fill="#202124" font-family="Segoe UI Emoji,Segoe UI Emoji_MSFontService,sans-serif" font-weight="400" font-size="72" transform="translate(326.348 73)">😎</text><text fill="#202124" font-family="Segoe UI Emoji,Segoe UI Emoji_MSFontService,sans-serif" font-weight="400" font-size="72" transform="translate(425.181 73)">💖</text><text fill="#202124" font-family="Segoe UI Emoji,Segoe UI Emoji_MSFontService,sans-serif" font-weight="400" font-size="72" transform="translate(524.015 73)">🥰</text><text fill="#202124" font-family="Segoe UI Emoji,Segoe UI Emoji_MSFontService,sans-serif" font-weight="400" font-size="72" transform="translate(622.848 73)">😆</text><text fill="#202124" font-family="Segoe UI Emoji,Segoe UI Emoji_MSFontService,sans-serif" font-weight="400" font-size="72" transform="translate(721.681 73)">😜</text><text fill="#202124" font-family="Segoe UI Emoji,Segoe UI Emoji_MSFontService,sans-serif" font-weight="400" font-size="72" transform="translate(820.515 73)">🤪</text><text fill="#202124" font-family="Segoe UI Emoji,Segoe UI Emoji_MSFontService,sans-serif" font-weight="400" font-size="72" transform="translate(919.348 73)">🥳</text><text fill="#202124" font-family="Segoe UI Emoji,Segoe UI Emoji_MSFontService,sans-serif" font-weight="400" font-size="72" transform="translate(-109.544 184)">🤝</text><text fill="#202124" font-family="Segoe UI Emoji,Segoe UI Emoji_MSFontService,sans-serif" font-weight="400" font-size="72" transform="translate(-10.7106 184)">🤪</text><text fill="#202124" font-family="Segoe UI Emoji,Segoe UI Emoji_MSFontService,sans-serif" font-weight="400" font-size="72" transform="translate(88.1228 184)">🥳</text><text fill="#202124" font-family="Segoe UI Emoji,Segoe UI Emoji_MSFontService,sans-serif" font-weight="400" font-size="72" transform="translate(186.956 184)">🤏</text><text fill="#202124" font-family="Segoe UI Emoji,Segoe UI Emoji_MSFontService,sans-serif" font-weight="400" font-size="72" transform="translate(285.789 184)">💪</text><text fill="#202124" font-family="Segoe UI Emoji,Segoe UI Emoji_MSFontService,sans-serif" font-weight="400" font-size="72" transform="translate(384.623 184)">🤞</text><text fill="#202124" font-family="Segoe UI Emoji,Segoe UI Emoji_MSFontService,sans-serif" font-weight="400" font-size="72" transform="translate(483.456 184)">✌️</text><text fill="#202124" font-family="Segoe UI Emoji,Segoe UI Emoji_MSFontService,sans-serif" font-weight="400" font-size="72" transform="translate(582.289 184)">🫰</text><text fill="#202124" font-family="Segoe UI Emoji,Segoe UI Emoji_MSFontService,sans-serif" font-weight="400" font-size="72" transform="translate(681.123 184)">👏</text><text fill="#202124" font-family="Segoe UI Emoji,Segoe UI Emoji_MSFontService,sans-serif" font-weight="400" font-size="72" transform="translate(779.956 184)">👋</text><text fill="#202124" font-family="Segoe UI Emoji,Segoe UI Emoji_MSFontService,sans-serif" font-weight="400" font-size="72" transform="translate(878.789 184)">🫶</text><text fill="#202124" font-family="Segoe UI Emoji,Segoe UI Emoji_MSFontService,sans-serif" font-weight="400" font-size="72" transform="translate(977.623 184)">🤝</text><text fill="#202124" font-family="Segoe UI Emoji,Segoe UI Emoji_MSFontService,sans-serif" font-weight="400" font-size="72" transform="translate(-68.9855 294)">🫶</text><text fill="#202124" font-family="Segoe UI Emoji,Segoe UI Emoji_MSFontService,sans-serif" font-weight="400" font-size="72" transform="translate(29.8478 294)">🤝</text><text fill="#202124" font-family="Segoe UI Emoji,Segoe UI Emoji_MSFontService,sans-serif" font-weight="400" font-size="72" transform="translate(128.681 294)">🙏</text><text fill="#202124" font-family="Segoe UI Emoji,Segoe UI Emoji_MSFontService,sans-serif" font-weight="400" font-size="72" transform="translate(227.514 294)">🎈</text><text fill="#202124" font-family="Segoe UI Emoji,Segoe UI Emoji_MSFontService,sans-serif" font-weight="400" font-size="72" transform="translate(326.348 294)">🧨</text><text fill="#202124" font-family="Segoe UI Emoji,Segoe UI Emoji_MSFontService,sans-serif" font-weight="400" font-size="72" transform="translate(425.181 294)">✨</text><text fill="#202124" font-family="Segoe UI Emoji,Segoe UI Emoji_MSFontService,sans-serif" font-weight="400" font-size="72" transform="translate(524.015 294)">🎉</text><text fill="#202124" font-family="Segoe UI Emoji,Segoe UI Emoji_MSFontService,sans-serif" font-weight="400" font-size="72" transform="translate(622.848 294)">🎊</text><text fill="#202124" font-family="Segoe UI Emoji,Segoe UI Emoji_MSFontService,sans-serif" font-weight="400" font-size="72" transform="translate(721.681 294)">🎀</text><text fill="#202124" font-family="Segoe UI Emoji,Segoe UI Emoji_MSFontService,sans-serif" font-weight="400" font-size="72" transform="translate(820.515 294)">🎁</text><text fill="#202124" font-family="Segoe UI Emoji,Segoe UI Emoji_MSFontService,sans-serif" font-weight="400" font-size="72" transform="translate(919.348 294)">🧧</text><text fill="#202124" font-family="Segoe UI Emoji,Segoe UI Emoji_MSFontService,sans-serif" font-weight="400" font-size="72" transform="translate(-109.544 405)">🎲</text><text fill="#202124" font-family="Segoe UI Emoji,Segoe UI Emoji_MSFontService,sans-serif" font-weight="400" font-size="72" transform="translate(-10.7106 405)">🎁</text><text fill="#202124" font-family="Segoe UI Emoji,Segoe UI Emoji_MSFontService,sans-serif" font-weight="400" font-size="72" transform="translate(88.1228 405)">🧧</text><text fill="#202124" font-family="Segoe UI Emoji,Segoe UI Emoji_MSFontService,sans-serif" font-weight="400" font-size="72" transform="translate(186.956 405)">🎟️</text><text fill="#202124" font-family="Segoe UI Emoji,Segoe UI Emoji_MSFontService,sans-serif" font-weight="400" font-size="72" transform="translate(285.789 405)">🥇</text><text fill="#202124" font-family="Segoe UI Emoji,Segoe UI Emoji_MSFontService,sans-serif" font-weight="400" font-size="72" transform="translate(384.623 405)">🥈</text><text fill="#202124" font-family="Segoe UI Emoji,Segoe UI Emoji_MSFontService,sans-serif" font-weight="400" font-size="72" transform="translate(483.456 405)">🥉</text><text fill="#202124" font-family="Segoe UI Emoji,Segoe UI Emoji_MSFontService,sans-serif" font-weight="400" font-size="72" transform="translate(582.289 405)">🏅</text><text fill="#202124" font-family="Segoe UI Emoji,Segoe UI Emoji_MSFontService,sans-serif" font-weight="400" font-size="72" transform="translate(681.123 405)">🎖️</text><text fill="#202124" font-family="Segoe UI Emoji,Segoe UI Emoji_MSFontService,sans-serif" font-weight="400" font-size="72" transform="translate(779.956 405)">🎯</text><text fill="#202124" font-family="Segoe UI Emoji,Segoe UI Emoji_MSFontService,sans-serif" font-weight="400" font-size="72" transform="translate(878.789 405)">🪄</text><text fill="#202124" font-family="Segoe UI Emoji,Segoe UI Emoji_MSFontService,sans-serif" font-weight="400" font-size="72" transform="translate(977.623 405)">🎲</text><text fill="#202124" font-family="Segoe UI Emoji,Segoe UI Emoji_MSFontService,sans-serif" font-weight="400" font-size="72" transform="translate(-68.9855 516)">🪄</text><text fill="#202124" font-family="Segoe UI Emoji,Segoe UI Emoji_MSFontService,sans-serif" font-weight="400" font-size="72" transform="translate(29.8478 516)">🎲</text><text fill="#202124" font-family="Segoe UI Emoji,Segoe UI Emoji_MSFontService,sans-serif" font-weight="400" font-size="72" transform="translate(128.681 516)">🎰</text><text fill="#202124" font-family="Segoe UI Emoji,Segoe UI Emoji_MSFontService,sans-serif" font-weight="400" font-size="72" transform="translate(227.514 516)">🕹️</text><text fill="#202124" font-family="Segoe UI Emoji,Segoe UI Emoji_MSFontService,sans-serif" font-weight="400" font-size="72" transform="translate(326.348 516)">♥️</text><text fill="#202124" font-family="Segoe UI Emoji,Segoe UI Emoji_MSFontService,sans-serif" font-weight="400" font-size="72" transform="translate(425.181 516)">😄</text><text fill="#202124" font-family="Segoe UI Emoji,Segoe UI Emoji_MSFontService,sans-serif" font-weight="400" font-size="72" transform="translate(524.015 516)">😊</text><text fill="#202124" font-family="Segoe UI Emoji,Segoe UI Emoji_MSFontService,sans-serif" font-weight="400" font-size="72" transform="translate(622.848 516)">🤞</text><text fill="#202124" font-family="Segoe UI Emoji,Segoe UI Emoji_MSFontService,sans-serif" font-weight="400" font-size="72" transform="translate(721.681 516)">😁</text><text fill="#202124" font-family="Segoe UI Emoji,Segoe UI Emoji_MSFontService,sans-serif" font-weight="400" font-size="72" transform="translate(820.515 516)">😎</text><text fill="#202124" font-family="Segoe UI Emoji,Segoe UI Emoji_MSFontService,sans-serif" font-weight="400" font-size="72" transform="translate(919.348 516)">💖</text><g filter="url(#fx0)" transform="matrix(3.0045 0 0 2.99194 147 89)"><g clip-path="url(#clip4)"><path d="M20.1365 20.5553C25.2349 19.7862 30.3798 21.5068 38.5111 20.5553 46.6424 19.6038 49.4767 22.2694 53.2512 20.5553 57.0256 18.8411 68.3753 22.3388 77.0776 20.5553 85.78 18.7717 88.716 21.7355 95.4523 20.5553 102.189 19.3751 105.98 21.1546 113.827 20.5553 121.674 19.956 126.193 20.9399 137.653 20.5553 149.114 20.1707 146.259 21.3033 154.211 20.5553 162.163 19.8072 167.099 23.2241 178.037 20.5553 188.975 17.8865 195.819 21.996 201.864 20.5553 202.179 27.7261 199.675 33.623 201.864 41.2776 204.052 48.9323 201.206 55.1731 201.864 62 202.521 68.8269 199.885 73.5144 201.864 83.5513 203.842 93.5882 201.044 99.0664 201.864 103.445 193.293 104.867 187.501 102.553 181.672 103.445 175.842 104.336 169.787 101.808 165.114 103.445 160.442 105.082 149.794 101.487 144.922 103.445 140.051 105.403 127.36 100.919 121.096 103.445 114.832 105.97 110.295 102.249 100.904 103.445 91.513 104.641 91.7553 102.498 86.164 103.445 80.5727 104.392 77.8749 101.51 69.6066 103.445 61.3384 105.38 56.2988 102.791 45.7802 103.445 35.2616 104.098 26.7258 103.057 20.1365 103.445 19.8551 96.0961 22.0272 89.3135 20.1365 84.3802 18.2457 79.4468 21.0169 70.8005 20.1365 64.4867 19.256 58.1728 21.7753 54.2317 20.1365 46.251 18.4976 38.2703 20.8701 32.0667 20.1365 20.5553Z" fill="#F6F6F6" fill-rule="evenodd"/><path d="M20.1365 20.5553C27.0052 18.1536 32.2742 22.2156 42.1456 20.5553 52.0171 18.8949 51.9223 20.5959 56.8857 20.5553 61.8491 20.5147 67.1132 22.5716 75.2603 20.5553 83.4074 18.539 88.2919 22.3161 99.0868 20.5553 109.882 18.7944 109.385 21.6171 119.279 20.5553 129.172 19.4934 131.377 22.9765 141.288 20.5553 151.199 18.1341 155.439 22.5795 159.663 20.5553 163.886 18.531 172.428 21.3808 179.854 20.5553 187.281 19.7297 194.831 20.5591 201.864 20.5553 203.654 27.9287 201.2 35.4436 201.864 39.6198 202.527 43.796 200.15 50.7913 201.864 57.8555 203.577 64.9198 200.955 68.1059 201.864 76.9201 202.772 85.7343 199.212 94.6722 201.864 103.445 195.732 104.019 185.779 101.026 181.672 103.445 177.565 105.864 168.657 103.403 161.48 103.445 154.302 103.486 151.227 101.685 144.922 103.445 138.618 105.205 129.457 101.008 124.731 103.445 120.004 105.881 109.888 101.999 104.539 103.445 99.1894 104.89 88.7305 102.77 84.3467 103.445 79.963 104.12 70.9345 101.491 64.1548 103.445 57.3752 105.398 53.8264 101.338 45.7802 103.445 37.734 105.551 29.0759 102.177 20.1365 103.445 19.5128 96.6839 21.3557 91.661 20.1365 82.7224 18.9172 73.7838 20.7412 68.9327 20.1365 61.1711 19.5317 53.4095 21.8611 47.7988 20.1365 39.6198 18.4118 31.4409 22.0409 24.7031 20.1365 20.5553Z" stroke="#F13451" stroke-width="4" stroke-linecap="round" stroke-linejoin="round" stroke-miterlimit="10" fill="none" fill-rule="evenodd"/></g></g><path d="M207.5 146.5C222.818 144.199 238.276 149.347 262.707 146.5 287.137 143.653 295.653 151.629 306.993 146.5 318.334 141.371 352.434 151.836 378.58 146.5 404.726 141.164 413.548 150.031 433.787 146.5 454.026 142.969 465.417 148.293 488.993 146.5 512.57 144.707 526.146 147.651 560.58 146.5 595.014 145.349 586.434 148.738 610.327 146.5 634.219 144.262 649.051 154.485 681.913 146.5 714.776 138.515 735.34 150.811 753.5 146.5 754.448 167.955 746.926 185.598 753.5 208.5 760.075 231.402 751.525 250.074 753.5 270.5 755.475 290.926 747.555 304.95 753.5 334.98 759.445 365.01 751.039 381.4 753.5 394.5 727.749 398.754 710.348 391.833 692.833 394.5 675.319 397.167 657.126 389.603 643.087 394.5 629.047 399.397 597.057 388.642 582.42 394.5 567.783 400.358 529.654 386.944 510.833 394.5 492.013 402.056 478.382 390.922 450.167 394.5 421.951 398.078 422.679 391.666 405.88 394.5 389.081 397.334 380.975 388.711 356.133 394.5 331.291 400.289 316.15 392.545 284.547 394.5 252.944 396.455 227.298 393.339 207.5 394.5 206.655 372.513 213.181 352.22 207.5 337.46 201.819 322.7 210.145 296.831 207.5 277.94 204.855 259.049 212.424 247.258 207.5 223.38 202.576 199.502 209.704 180.941 207.5 146.5Z" fill="#F6F6F6" fill-rule="evenodd"/><path d="M207.5 146.5C228.137 139.314 243.968 151.468 273.627 146.5 303.286 141.532 303.001 146.621 317.913 146.5 332.826 146.379 348.642 152.533 373.12 146.5 397.598 140.467 412.273 151.768 444.707 146.5 477.14 141.232 475.648 149.677 505.373 146.5 535.099 143.323 541.723 153.744 571.5 146.5 601.277 139.256 614.016 152.556 626.707 146.5 639.397 140.444 665.061 148.97 687.373 146.5 709.686 144.03 732.372 146.512 753.5 146.5 758.878 168.561 751.507 191.045 753.5 203.54 755.493 216.035 748.351 236.964 753.5 258.1 758.649 279.236 750.771 288.768 753.5 315.14 756.229 341.512 745.532 368.253 753.5 394.5 735.078 396.217 705.173 387.263 692.833 394.5 680.493 401.737 653.732 394.376 632.167 394.5 610.602 394.624 601.362 389.235 582.42 394.5 563.478 399.765 535.954 387.21 521.753 394.5 507.552 401.79 477.159 390.175 461.087 394.5 445.015 398.825 413.591 392.481 400.42 394.5 387.249 396.519 360.123 388.655 339.753 394.5 319.384 400.345 308.722 388.197 284.547 394.5 260.372 400.803 234.359 390.708 207.5 394.5 205.626 374.272 211.163 359.244 207.5 332.5 203.837 305.756 209.317 291.242 207.5 268.02 205.683 244.798 212.682 228.011 207.5 203.54 202.318 179.069 213.222 158.91 207.5 146.5Z" stroke="#F13451" stroke-width="13.3333" stroke-linecap="round" stroke-linejoin="round" stroke-miterlimit="10" fill="none" fill-rule="evenodd"/><text fill="#202124" font-family="MiSans VF,MiSans VF_MSFontService,sans-serif" font-weight="700" font-size="80" transform="translate(320 249)">祝王老师</text><text fill="#202124" font-family="MiSans VF,MiSans VF_MSFontService,sans-serif" font-weight="700" font-size="80" transform="translate(640 249)"></text><g clip-path="url(#clip5)" filter="url(#fx1)" transform="translate(186 242)"><g><path d="M10.96-56.48 21.84-56.48 21.84-8.48 10.96-8.4ZM3.68-9.52C4.8-9.73333 6.16-10.0533 7.76-10.48 11.0667-11.3333 15.08-12.4133 19.8-13.72 24.52-15.0267 27.6-15.92 29.04-16.4L29.68-11.2 30.48-4C28.7733-3.68 25.2533-2.77333 19.92-1.28 11.8667 0.96 7.09333 2.37333 5.6 2.96ZM5.12-64.64 28-64.64 28-53.44 5.12-53.44ZM5.2-38.08 26.16-38.08 26.16-26.8 5.2-26.8ZM56.96-57.92 68.16-58.08 68.16-1.36 56.96-1.2ZM50.32-64.56 74.96-64.56 74.96-53.36 50.32-53.36ZM47.6-8.4 76.4-8.4 76.4 2.8 47.6 2.8ZM50.4-37.84 74.64-37.84 74.64-26.48 50.4-26.48ZM27.28-20.72C28.5067-32.4 29.04-43.7333 28.88-54.72L36.96-54.72C36.8533-41.6533 36.3733-30.1067 35.52-20.08ZM25.28 0C28.96-3.68 31.6933-6.98667 33.48-9.92 35.2667-12.8533 36.4933-16.2133 37.16-20 37.8267-23.7867 38.16-28.9333 38.16-35.44L38.16-66.56 48.8-66.56 48.8-36.24C48.8-28.6667 48.3467-22.36 47.44-17.32 46.5333-12.28 45.08-7.92 43.08-4.24 41.08-0.56 38.32 3.09333 34.8 6.72ZM85.12-8.56 154.8-8.56 154.8 2.8 85.12 2.8ZM88-55.6 152.56-55.6 152.56-43.84 88-43.84ZM91.04-32.64 148.88-32.64 148.88-20.96 91.04-20.96ZM124.32-69.76C126.08-64.0533 127.307-60.1333 128-58L115.12-54.64C114-58.64 112.8-62.7733 111.52-67.04ZM113.52-50 126.48-50 126.48-1.84 113.52-1.84ZM183.68-51.12 183.68 4.4 172 4.4 172-45.84ZM235.52-36.96 235.52-25.12 186.96-25.12 186.96-36.96ZM233.36-8.64 233.36 3.12 188.8 3.12 188.8-8.64ZM218-55.76 218-1.36 205.2-1.36 205.2-55.76ZM162.24-34.16C165.12-37.84 168.107-42.76 171.2-48.92 174.293-55.08 176.827-61.2267 178.8-67.36L189.84-64.16C187.067-55.7333 183.827-48.0533 180.12-41.12 176.413-34.1867 171.707-27.1467 166-20ZM189.52-61.36C196.453-61.68 203.747-62.32 211.4-63.28 219.053-64.24 225.787-65.3867 231.6-66.72L234.16-55.04C228.133-53.76 221.187-52.6533 213.32-51.72 205.453-50.7867 197.893-50.1067 190.64-49.68ZM263.36-36 276.24-36 276.24 6.48 263.36 6.48ZM260.8-66.96 273.36-66.96 273.36-44.08 260.8-44.08ZM286.48-66.96 299.36-66.96 299.36-44.08 286.48-44.08ZM244-61.04 315.76-61.04 315.76-49.28 244-49.28ZM310.56-41.76 310.08-28.32C310.027-25.7067 309.973-23.2933 309.92-21.08 309.867-18.8667 309.787-17.0133 309.68-15.52 309.52-12.0533 308.907-9.37333 307.84-7.48 306.773-5.58667 305.133-4.25333 302.92-3.48 300.707-2.70667 297.707-2.32 293.92-2.32L281.04-2.32 278.8-14 289.76-14C291.84-14 293.347-14.12 294.28-14.36 295.213-14.6 295.84-15.0933 296.16-15.84 296.48-16.5867 296.693-17.8133 296.8-19.52 296.907-21.6533 297.013-23.7333 297.12-25.76 297.227-27.7867 297.28-29.1733 297.28-29.92L247.36-29.92 247.36-41.76ZM322.96-29.44C323.547-32.7467 324-36.1867 324.32-39.76 324.64-43.3333 325.013-48.1333 325.44-54.16L325.44-54.48 332.56-53.68 332.24-48.72C331.6-38.8533 330.96-31.8933 330.32-27.84ZM332.64-67.6 343.92-67.6 343.92 5.76 332.64 5.76ZM342.64-56C343.173-55.6267 343.773-55.24 344.44-54.84 345.107-54.44 345.84-54 346.64-53.52 350.373-51.2267 353.04-49.52 354.64-48.4L348.88-38.08C347.44-39.2 345.653-40.4667 343.52-41.88 341.387-43.2933 339.307-44.6133 337.28-45.84ZM350.48-58.24 391.44-58.24 391.44-29.28 379.84-29.28 379.84-46.96 350.48-46.96ZM346.96-32.88 395.6-32.88 395.6-21.2 346.96-21.2ZM342.8-3.44C347.333-6.21333 351.013-9.01333 353.84-11.84 356.667-14.6667 358.747-17.7733 360.08-21.16 361.413-24.5467 362.053-28.4267 362-32.8 362-37.44 362-43.2533 362-50.24 362-57.2267 362.027-63.0133 362.08-67.6L373.92-67.6 373.92-50.96C373.867-47.3333 373.84-43.9867 373.84-40.92 373.84-37.8533 373.813-35.36 373.76-33.44 373.653-27.36 372.907-22.1067 371.52-17.68 370.133-13.2533 367.813-9.13333 364.56-5.32 361.307-1.50667 356.773 2.42667 350.96 6.48ZM373.44-30.56C374.88-24.3733 377.333-19.2133 380.8-15.08 384.267-10.9467 388.987-7.57333 394.96-4.96L387.6 6.16C381.307 2.74667 376.027-1.69333 371.76-7.16 367.493-12.6267 364.453-19.0133 362.64-26.32ZM459.6-25.92C461.36-23.9467 463.627-21.2533 466.4-17.84 469.173-14.4267 471.867-11.0667 474.48-7.76 474.907-7.22667 475.32-6.69333 475.72-6.16 476.12-5.62667 476.533-5.09333 476.96-4.56L467.04 2.96C464.64-0.293333 461.84-4.01333 458.64-8.2 455.44-12.3867 452.693-15.8933 450.4-18.72ZM431.68-6.88C432.8-6.88 433.627-6.98667 434.16-7.2 434.693-7.41333 435.053-7.76 435.24-8.24 435.427-8.72 435.52-9.44 435.52-10.4L435.52-50.8 447.84-50.8 447.84-4.8C447.84-1.86667 447.467 0.386667 446.72 1.96 445.973 3.53333 444.747 4.62667 443.04 5.24 441.333 5.85333 438.96 6.16 435.92 6.16L426.48 6.16 424.08-6.88ZM403.04-4.48C405.973-7.62667 408.827-11.0933 411.6-14.88 414.373-18.6667 416.853-22.3733 419.04-26L429.28-19.68C426.88-15.9467 424.16-12.0267 421.12-7.92 418.08-3.81333 415.147-0.16 412.32 3.04ZM411.28-63.76C420.56-63.9733 430.227-64.52 440.28-65.4 450.333-66.28 459.013-67.28 466.32-68.4L468.88-56.56C462.533-55.6533 455.16-54.8267 446.76-54.08 438.36-53.3333 430.267-52.72 422.48-52.24L420.8-38.88 472.32-38.88 472.32-27.28 407.52-27.28Z" fill="#FFB448" transform="translate(54 106)"/></g></g><path d="M10.96-56.48 21.84-56.48 21.84-8.48 10.96-8.4ZM3.68-9.52C4.8-9.73333 6.16-10.0533 7.76-10.48 11.0667-11.3333 15.08-12.4133 19.8-13.72 24.52-15.0267 27.6-15.92 29.04-16.4L29.68-11.2 30.48-4C28.7733-3.68 25.2533-2.77333 19.92-1.28 11.8667 0.96 7.09333 2.37333 5.6 2.96ZM5.12-64.64 28-64.64 28-53.44 5.12-53.44ZM5.2-38.08 26.16-38.08 26.16-26.8 5.2-26.8ZM56.96-57.92 68.16-58.08 68.16-1.36 56.96-1.2ZM50.32-64.56 74.96-64.56 74.96-53.36 50.32-53.36ZM47.6-8.4 76.4-8.4 76.4 2.8 47.6 2.8ZM50.4-37.84 74.64-37.84 74.64-26.48 50.4-26.48ZM27.28-20.72C28.5067-32.4 29.04-43.7333 28.88-54.72L36.96-54.72C36.8533-41.6533 36.3733-30.1067 35.52-20.08ZM25.28 0C28.96-3.68 31.6933-6.98667 33.48-9.92 35.2667-12.8533 36.4933-16.2133 37.16-20 37.8267-23.7867 38.16-28.9333 38.16-35.44L38.16-66.56 48.8-66.56 48.8-36.24C48.8-28.6667 48.3467-22.36 47.44-17.32 46.5333-12.28 45.08-7.92 43.08-4.24 41.08-0.56 38.32 3.09333 34.8 6.72ZM85.12-8.56 154.8-8.56 154.8 2.8 85.12 2.8ZM88-55.6 152.56-55.6 152.56-43.84 88-43.84ZM91.04-32.64 148.88-32.64 148.88-20.96 91.04-20.96ZM124.32-69.76C126.08-64.0533 127.307-60.1333 128-58L115.12-54.64C114-58.64 112.8-62.7733 111.52-67.04ZM113.52-50 126.48-50 126.48-1.84 113.52-1.84ZM183.68-51.12 183.68 4.4 172 4.4 172-45.84ZM235.52-36.96 235.52-25.12 186.96-25.12 186.96-36.96ZM233.36-8.64 233.36 3.12 188.8 3.12 188.8-8.64ZM218-55.76 218-1.36 205.2-1.36 205.2-55.76ZM162.24-34.16C165.12-37.84 168.107-42.76 171.2-48.92 174.293-55.08 176.827-61.2267 178.8-67.36L189.84-64.16C187.067-55.7333 183.827-48.0533 180.12-41.12 176.413-34.1867 171.707-27.1467 166-20ZM189.52-61.36C196.453-61.68 203.747-62.32 211.4-63.28 219.053-64.24 225.787-65.3867 231.6-66.72L234.16-55.04C228.133-53.76 221.187-52.6533 213.32-51.72 205.453-50.7867 197.893-50.1067 190.64-49.68ZM263.36-36 276.24-36 276.24 6.48 263.36 6.48ZM260.8-66.96 273.36-66.96 273.36-44.08 260.8-44.08ZM286.48-66.96 299.36-66.96 299.36-44.08 286.48-44.08ZM244-61.04 315.76-61.04 315.76-49.28 244-49.28ZM310.56-41.76 310.08-28.32C310.027-25.7067 309.973-23.2933 309.92-21.08 309.867-18.8667 309.787-17.0133 309.68-15.52 309.52-12.0533 308.907-9.37333 307.84-7.48 306.773-5.58667 305.133-4.25333 302.92-3.48 300.707-2.70667 297.707-2.32 293.92-2.32L281.04-2.32 278.8-14 289.76-14C291.84-14 293.347-14.12 294.28-14.36 295.213-14.6 295.84-15.0933 296.16-15.84 296.48-16.5867 296.693-17.8133 296.8-19.52 296.907-21.6533 297.013-23.7333 297.12-25.76 297.227-27.7867 297.28-29.1733 297.28-29.92L247.36-29.92 247.36-41.76ZM322.96-29.44C323.547-32.7467 324-36.1867 324.32-39.76 324.64-43.3333 325.013-48.1333 325.44-54.16L325.44-54.48 332.56-53.68 332.24-48.72C331.6-38.8533 330.96-31.8933 330.32-27.84ZM332.64-67.6 343.92-67.6 343.92 5.76 332.64 5.76ZM342.64-56C343.173-55.6267 343.773-55.24 344.44-54.84 345.107-54.44 345.84-54 346.64-53.52 350.373-51.2267 353.04-49.52 354.64-48.4L348.88-38.08C347.44-39.2 345.653-40.4667 343.52-41.88 341.387-43.2933 339.307-44.6133 337.28-45.84ZM350.48-58.24 391.44-58.24 391.44-29.28 379.84-29.28 379.84-46.96 350.48-46.96ZM346.96-32.88 395.6-32.88 395.6-21.2 346.96-21.2ZM342.8-3.44C347.333-6.21333 351.013-9.01333 353.84-11.84 356.667-14.6667 358.747-17.7733 360.08-21.16 361.413-24.5467 362.053-28.4267 362-32.8 362-37.44 362-43.2533 362-50.24 362-57.2267 362.027-63.0133 362.08-67.6L373.92-67.6 373.92-50.96C373.867-47.3333 373.84-43.9867 373.84-40.92 373.84-37.8533 373.813-35.36 373.76-33.44 373.653-27.36 372.907-22.1067 371.52-17.68 370.133-13.2533 367.813-9.13333 364.56-5.32 361.307-1.50667 356.773 2.42667 350.96 6.48ZM373.44-30.56C374.88-24.3733 377.333-19.2133 380.8-15.08 384.267-10.9467 388.987-7.57333 394.96-4.96L387.6 6.16C381.307 2.74667 376.027-1.69333 371.76-7.16 367.493-12.6267 364.453-19.0133 362.64-26.32ZM459.6-25.92C461.36-23.9467 463.627-21.2533 466.4-17.84 469.173-14.4267 471.867-11.0667 474.48-7.76 474.907-7.22667 475.32-6.69333 475.72-6.16 476.12-5.62667 476.533-5.09333 476.96-4.56L467.04 2.96C464.64-0.293333 461.84-4.01333 458.64-8.2 455.44-12.3867 452.693-15.8933 450.4-18.72ZM431.68-6.88C432.8-6.88 433.627-6.98667 434.16-7.2 434.693-7.41333 435.053-7.76 435.24-8.24 435.427-8.72 435.52-9.44 435.52-10.4L435.52-50.8 447.84-50.8 447.84-4.8C447.84-1.86667 447.467 0.386667 446.72 1.96 445.973 3.53333 444.747 4.62667 443.04 5.24 441.333 5.85333 438.96 6.16 435.92 6.16L426.48 6.16 424.08-6.88ZM403.04-4.48C405.973-7.62667 408.827-11.0933 411.6-14.88 414.373-18.6667 416.853-22.3733 419.04-26L429.28-19.68C426.88-15.9467 424.16-12.0267 421.12-7.92 418.08-3.81333 415.147-0.16 412.32 3.04ZM411.28-63.76C420.56-63.9733 430.227-64.52 440.28-65.4 450.333-66.28 459.013-67.28 466.32-68.4L468.88-56.56C462.533-55.6533 455.16-54.8267 446.76-54.08 438.36-53.3333 430.267-52.72 422.48-52.24L420.8-38.88 472.32-38.88 472.32-27.28 407.52-27.28Z" fill="#FFB448" transform="translate(240 345)"/><text fill="#000000" fill-opacity="0" font-family="Arial,Arial_MSFontService,sans-serif" font-size="76.48" x="3.68" y="-2.84">班主任节快乐</text><g filter="url(#fx2)" transform="translate(666 242)"><g><path d="" fill="#FFB448" transform="translate(54 106)"/></g></g><text fill="#FFB448" font-family="MiSans VF,MiSans VF_MSFontService,sans-serif" font-weight="700" font-size="80" transform="translate(720 345)"></text></g></svg>